<?xml version="1.0" encoding="UTF-8" standalone="no"?>
<!DOCTYPE svg PUBLIC "-//W3C//DTD SVG 1.1//EN" "http://www.w3.org/Graphics/SVG/1.1/DTD/svg11.dtd">
<svg xmlns="http://www.w3.org/2000/svg" version="1.1" viewBox="0 0 500 50">
<path fill="#fd3030" d="M 137.40,4.44 L 165.68,4.56 A 0.60,0.56 -3.2 0 1 166.27,5.05 Q 166.72,8.29 163.25,8.28 Q 150.50,8.25 137.76,8.25 A 1.22,0.81 -12.1 0 1 136.88,7.90 Q 136.18,6.98 136.70,4.98 A 0.72,0.72 7.2 0 1 137.40,4.44 Z"/>
<path fill="#fd3030" d="M 435.80,7.33 A 1.84,1.83 -75.0 0 1 434.21,8.25 L 407.57,8.19 A 0.89,0.78 -11.9 0 1 406.81,7.76 Q 406.24,6.58 406.55,5.01 A 0.63,0.62 -84.3 0 1 407.16,4.50 L 435.68,4.56 A 0.61,0.57 -3.2 0 1 436.28,5.06 Q 436.43,6.25 435.80,7.33 Z"/>
<rect fill="#fefefe" x="12.99" y="5.52" width="3.76" height="29.96" rx="0.38"/>
<path fill="#fefefe" d="M 68.20,28.67 L 68.08,6.32 A 0.70,0.63 81.8 0 1 68.53,5.65 Q 69.99,5.20 71.46,5.64 A 0.70,0.69 -81.6 0 1 71.95,6.31 L 71.81,33.48 Q 71.79,37.44 68.70,34.92 L 40.41,11.84 Q 39.50,11.10 39.50,12.26 L 39.50,34.70 A 0.62,0.62 84.3 0 1 39.00,35.31 Q 37.26,35.64 36.27,35.37 A 0.73,0.63 -83.2 0 1 35.81,34.69 L 35.75,6.37 A 0.95,0.94 -6.1 0 1 36.50,5.45 Q 38.14,5.09 39.51,6.23 Q 52.72,17.17 67.42,29.04 Q 68.21,29.67 68.20,28.67 Z"/>
<path fill="#fefefe" d="M 106.06,9.81 Q 105.95,20.50 106.00,31.20 Q 106.00,31.25 106.15,33.29 Q 106.41,36.60 102.78,35.36 A 0.73,0.69 -81.1 0 1 102.31,34.68 L 102.25,9.81 A 0.56,0.55 -90.0 0 0 101.70,9.25 Q 95.50,9.25 89.49,9.25 Q 89.40,9.25 88.53,9.34 Q 87.20,9.47 87.40,7.99 Q 87.46,7.55 87.34,7.02 Q 87.23,6.50 87.37,6.02 A 0.75,0.63 6.5 0 1 88.07,5.56 L 120.00,5.50 A 0.68,0.65 -7.2 0 1 120.65,5.98 Q 121.02,7.35 120.61,8.71 A 0.72,0.68 8.2 0 1 119.93,9.19 L 106.56,9.31 A 0.50,0.50 45.0 0 0 106.06,9.81 Z"/>
<path fill="#fefefe" d="M 182.55,24.81 L 182.51,34.60 A 0.66,0.64 84.5 0 1 182.01,35.23 Q 179.31,35.81 178.80,34.71 Q 178.75,34.61 178.75,32.26 Q 178.75,19.13 178.75,6.00 A 0.50,0.50 -45.0 0 1 179.25,5.50 Q 192.08,5.50 204.90,5.50 Q 204.99,5.50 207.10,5.39 Q 211.03,5.20 213.15,7.85 Q 214.71,9.79 214.99,13.37 Q 215.23,16.34 214.67,19.33 Q 214.37,20.92 213.14,21.76 A 0.61,0.60 -39.6 0 0 213.05,22.68 Q 214.27,23.91 214.69,25.56 Q 215.32,28.08 214.97,34.69 A 0.78,0.76 82.0 0 1 214.47,35.37 Q 210.43,36.82 211.05,32.22 Q 211.25,30.75 211.44,29.27 Q 211.74,26.90 210.45,25.40 Q 209.46,24.25 207.14,24.24 Q 195.09,24.21 183.05,24.31 A 0.50,0.50 45.0 0 0 182.55,24.81 ZM 209.48,9.62 A 1.84,1.82 63.3 0 0 208.38,9.25 L 183.35,9.25 A 0.85,0.85 -89.0 0 0 182.50,10.10 L 182.50,19.83 A 0.67,0.67 90.0 0 0 183.17,20.50 Q 193.91,20.50 204.14,20.50 Q 204.24,20.50 206.35,20.61 Q 211.28,20.86 211.36,16.23 Q 211.41,13.38 211.35,12.78 Q 211.15,10.90 209.48,9.62 Z"/>
<path fill="#fefefe" d="M 237.31,31.69 Q 248.66,31.80 260.00,31.98 Q 261.60,32.01 260.70,35.01 A 0.69,0.69 -81.4 0 1 260.04,35.50 L 233.61,35.50 A 0.61,0.61 -0.7 0 1 233.00,34.89 L 233.00,6.25 A 0.68,0.65 82.8 0 1 233.48,5.60 Q 234.85,5.23 236.21,5.64 A 0.71,0.68 -81.6 0 1 236.69,6.31 L 236.81,31.18 A 0.51,0.50 90.0 0 0 237.31,31.69 Z"/>
<rect fill="#fefefe" x="277.25" y="5.52" width="3.76" height="29.96" rx="0.44"/>
<path fill="#fefefe" d="M 332.44,29.04 Q 332.54,18.60 332.50,7.79 Q 332.50,7.73 332.36,6.72 Q 332.12,4.96 335.66,5.76 A 0.76,0.75 -83.8 0 1 336.25,6.50 L 336.25,34.50 A 0.92,0.83 76.6 0 1 335.83,35.27 Q 334.35,36.15 333.25,35.25 Q 319.02,23.61 304.57,11.74 Q 303.75,11.06 303.75,12.13 L 303.82,34.69 A 0.62,0.62 84.3 0 1 303.32,35.30 Q 301.53,35.64 300.52,35.37 A 0.73,0.63 -83.2 0 1 300.06,34.69 L 300.00,6.37 A 0.95,0.94 -6.1 0 1 300.75,5.45 Q 302.39,5.09 303.76,6.22 Q 317.04,17.21 331.94,29.28 Q 332.44,29.68 332.44,29.04 Z"/>
<path fill="#fefefe" d="M 359.56,18.44 Q 370.91,18.55 382.25,18.50 Q 385.33,18.49 386.67,16.53 Q 387.49,15.33 387.49,12.29 Q 387.48,9.18 387.55,6.07 A 0.55,0.50 -88.9 0 1 388.06,5.53 L 390.66,5.54 A 0.62,0.59 -90.0 0 1 391.25,6.16 Q 391.25,10.62 391.05,14.74 Q 390.90,17.71 388.46,20.17 A 0.48,0.48 43.4 0 0 388.48,20.87 Q 390.95,23.04 391.09,26.26 Q 391.25,30.13 391.25,34.60 A 0.65,0.64 -6.1 0 1 390.74,35.23 Q 388.04,35.82 387.54,34.70 Q 387.49,34.59 387.50,32.28 Q 387.51,29.89 387.57,27.50 Q 387.63,24.92 385.96,23.50 Q 384.82,22.52 382.26,22.42 Q 370.98,21.98 359.69,22.42 A 0.55,0.55 -89.4 0 0 359.16,22.94 Q 358.64,31.85 359.00,33.50 Q 359.56,36.06 355.84,35.25 A 0.75,0.75 6.3 0 1 355.25,34.52 L 355.25,6.25 A 0.64,0.45 -89.2 0 1 355.72,5.60 L 358.47,5.72 A 0.66,0.56 -89.6 0 1 359.01,6.37 L 359.05,17.93 A 0.52,0.51 89.4 0 0 359.56,18.44 Z"/>
<path fill="#fefefe" d="M 486.48,31.01 Q 483.96,34.74 479.96,35.45 Q 479.69,35.50 472.52,35.51 Q 462.54,35.53 452.56,35.44 A 0.51,0.50 90.0 0 1 452.06,34.93 L 451.94,6.04 A 0.54,0.53 -90.0 0 1 452.47,5.50 Q 465.17,5.46 477.46,5.54 Q 481.46,5.56 483.60,6.88 Q 488.57,9.92 488.21,16.76 Q 488.00,20.75 488.00,24.75 Q 488.00,28.75 486.48,31.01 ZM 483.51,28.89 A 4.78,4.71 61.7 0 0 484.24,26.39 Q 484.29,20.95 484.23,16.07 Q 484.18,12.72 483.07,11.32 Q 481.41,9.25 478.00,9.25 Q 467.25,9.25 456.19,9.25 A 0.51,0.51 -89.7 0 0 455.68,9.76 L 455.75,31.19 A 0.56,0.55 90.0 0 0 456.30,31.75 Q 466.55,31.75 476.16,31.75 Q 476.21,31.75 477.84,31.83 Q 481.55,32.02 483.51,28.89 Z"/>
<path fill="#fd3030" d="M 163.28,20.16 A 1.99,1.94 8.5 0 1 161.41,21.51 L 137.64,21.67 A 0.94,0.91 -6.9 0 1 136.72,20.97 Q 135.94,17.58 138.25,17.61 Q 149.44,17.75 160.63,17.75 Q 160.74,17.75 161.86,17.66 Q 164.14,17.49 163.28,20.16 Z"/>
<path fill="#fd3030" d="M 433.25,20.25 A 1.87,1.81 8.4 0 1 431.50,21.51 L 407.55,21.67 A 0.82,0.81 -7.0 0 1 406.74,21.05 Q 405.94,17.58 408.25,17.61 Q 419.46,17.75 430.67,17.75 Q 430.78,17.75 431.84,17.67 Q 434.14,17.48 433.25,20.25 Z"/>
<path fill="#fd3030" d="M 165.75,31.64 Q 167.23,32.83 166.68,34.54 A 0.73,0.66 8.2 0 1 166.00,35.00 L 137.31,34.94 A 0.70,0.67 -8.5 0 1 136.65,34.47 Q 135.50,30.86 138.98,31.11 Q 140.89,31.25 141.04,31.25 Q 152.66,31.25 164.65,31.25 A 1.75,1.74 -25.4 0 1 165.75,31.64 Z"/>
<path fill="#fd3030" d="M 436.21,32.03 Q 436.77,32.78 436.72,34.41 A 0.61,0.61 -89.0 0 1 436.11,35.00 L 407.32,35.00 A 0.66,0.65 -6.7 0 1 406.68,34.50 Q 406.25,32.72 406.77,31.73 A 0.98,0.78 10.2 0 1 407.57,31.30 Q 420.89,31.08 434.21,31.41 Q 435.78,31.45 436.21,32.03 Z"/>
</svg>
